<svg width="48" height="48" viewBox="0 0 48 48" fill="none" xmlns="http://www.w3.org/2000/svg">
<g clip-path="url(#clip0_2062_544)">
<g filter="url(#filter0_d_2062_544)">
<path d="M35.4473 4H11.4473C9.79041 4 8.44727 5.34315 8.44727 7V37.8698C8.44727 40.3656 11.3172 41.7701 13.2879 40.2388L22.1311 33.3676C23.2486 32.4993 24.821 32.5301 25.9037 33.4415L33.5153 39.8485C35.4666 41.491 38.4473 40.1039 38.4473 37.5534V7C38.4473 5.34315 37.1041 4 35.4473 4Z" fill="#F6EDED"/>
<path d="M35.4473 4H11.4473C9.79041 4 8.44727 5.34315 8.44727 7V37.8698C8.44727 40.3656 11.3172 41.7701 13.2879 40.2388L22.1311 33.3676C23.2486 32.4993 24.821 32.5301 25.9037 33.4415L33.5153 39.8485C35.4666 41.491 38.4473 40.1039 38.4473 37.5534V7C38.4473 5.34315 37.1041 4 35.4473 4Z" stroke="white" stroke-width="2"/>
</g>
</g>
<defs>
<filter id="filter0_d_2062_544" x="3.44727" y="-1" width="40" height="46.8774" filterUnits="userSpaceOnUse" color-interpolation-filters="sRGB">
<feFlood flood-opacity="0" result="BackgroundImageFix"/>
<feColorMatrix in="SourceAlpha" type="matrix" values="0 0 0 0 0 0 0 0 0 0 0 0 0 0 0 0 0 0 127 0" result="hardAlpha"/>
<feOffset/>
<feGaussianBlur stdDeviation="2"/>
<feComposite in2="hardAlpha" operator="out"/>
<feColorMatrix type="matrix" values="0 0 0 0 0.341176 0 0 0 0 0.411765 0 0 0 0 0.564706 0 0 0 0.2 0"/>
<feBlend mode="normal" in2="BackgroundImageFix" result="effect1_dropShadow_2062_544"/>
<feBlend mode="normal" in="SourceGraphic" in2="effect1_dropShadow_2062_544" result="shape"/>
</filter>
<clipPath id="clip0_2062_544">
<rect width="48" height="48" fill="white"/>
</clipPath>
</defs>
</svg>
