<svg width="48" height="48" viewBox="0 0 48 48" fill="none" xmlns="http://www.w3.org/2000/svg">
<g clip-path="url(#clip0_2062_541)">
<g filter="url(#filter0_d_2062_541)">
<path d="M28.3968 4.42207L27.409 4.57793V4.57793L28.3968 4.42207ZM39.616 11.2179L39.9662 12.1546L39.616 11.2179ZM40.2477 11.435L39.393 11.9541V11.9541L40.2477 11.435ZM43.9288 17.4961L43.0741 18.0152L43.0741 18.0152L43.9288 17.4961ZM43.8107 18.1247L44.4143 18.922L44.4143 18.922L43.8107 18.1247ZM43.8107 29.8753L44.4143 29.078L44.4143 29.078L43.8107 29.8753ZM43.9288 30.5039L43.0741 29.9848L43.0741 29.9848L43.9288 30.5039ZM40.2477 36.565L39.393 36.0459L40.2477 36.565ZM39.616 36.7821L39.9662 35.8454L39.9662 35.8454L39.616 36.7821ZM27.9958 43.5779L27.008 43.4221V43.4221L27.9958 43.5779ZM19.6031 43.5779L18.6153 43.7338L19.6031 43.5779ZM8.38385 36.7821L8.73405 37.7188L8.73406 37.7188L8.38385 36.7821ZM7.75215 36.565L6.89743 37.0841L6.89743 37.0841L7.75215 36.565ZM4.07111 30.5039L4.92583 29.9848L4.92583 29.9848L4.07111 30.5039ZM4.18918 29.8753L4.79275 30.6726L4.79276 30.6726L4.18918 29.8753ZM4.18918 18.1247L3.58561 18.922L3.58561 18.922L4.18918 18.1247ZM4.07111 17.4961L3.21639 16.977L3.21639 16.977L4.07111 17.4961ZM7.75215 11.435L8.60687 11.9541L7.75215 11.435ZM8.38385 11.2179L8.73406 10.2812H8.73406L8.38385 11.2179ZM20.0041 4.42207L20.9919 4.57793V4.57793L20.0041 4.42207ZM13.2984 13.0553L12.9482 13.992L13.2984 13.0553ZM8.8857 21.6801L8.28213 22.4774L8.8857 21.6801ZM12.8993 35.0939L13.2495 36.0305L12.8993 35.0939ZM9.13033 26.1348L8.52676 25.3374L9.13033 26.1348ZM28.6639 39.3433L29.6517 39.4992L28.6639 39.3433ZM35.6345 35.2935L35.2843 36.2302L35.6345 35.2935ZM39.4662 26.5865L40.0698 25.7891L39.4662 26.5865ZM39.7002 21.2364L39.0966 20.4391L39.7002 21.2364ZM34.882 12.9879L34.5318 12.0512L34.882 12.9879ZM27.9029 3H20.498V5H27.9029V3ZM29.3846 4.26622C29.2695 3.53706 28.6411 3 27.9029 3V5C27.6568 5 27.4473 4.82098 27.409 4.57793L29.3846 4.26622ZM30.2173 9.54366L29.3846 4.26621L27.409 4.57793L28.2417 9.85538L30.2173 9.54366ZM39.2658 10.2812L34.5318 12.0512L35.2322 13.9245L39.9662 12.1546L39.2658 10.2812ZM41.1025 10.9159C40.722 10.2895 39.9454 10.0271 39.2658 10.2812L39.9662 12.1546C39.7546 12.2337 39.5158 12.1562 39.393 11.9541L41.1025 10.9159ZM44.7835 16.977L41.1025 10.9159L39.393 11.9541L43.0741 18.0152L44.7835 16.977ZM44.4143 18.922C45.0238 18.4606 45.1759 17.6231 44.7835 16.977L43.0741 18.0152C42.9394 17.7934 42.9908 17.4911 43.2071 17.3274L44.4143 18.922ZM40.3038 22.0338L44.4143 18.922L43.2071 17.3274L39.0966 20.4391L40.3038 22.0338ZM44.4143 29.078L40.0698 25.7891L38.8627 27.3838L43.2071 30.6726L44.4143 29.078ZM44.7835 31.023C45.1759 30.3769 45.0238 29.5394 44.4143 29.078L43.2071 30.6726C42.9908 30.5089 42.9394 30.2066 43.0741 29.9848L44.7835 31.023ZM41.1025 37.0841L44.7835 31.023L43.0741 29.9848L39.393 36.0459L41.1025 37.0841ZM39.2658 37.7188C39.9454 37.9729 40.722 37.7105 41.1025 37.0841L39.393 36.0459C39.5158 35.8438 39.7546 35.7663 39.9662 35.8454L39.2658 37.7188ZM35.2843 36.2302L39.2658 37.7188L39.9662 35.8454L35.9847 34.3568L35.2843 36.2302ZM28.9835 43.7338L29.6517 39.4992L27.6762 39.1875L27.008 43.4221L28.9835 43.7338ZM27.5019 45C28.24 45 28.8685 44.4629 28.9835 43.7338L27.008 43.4221C27.0463 43.179 27.2558 43 27.5019 43V45ZM20.097 45H27.5019V43H20.097V45ZM18.6153 43.7338C18.7304 44.4629 19.3588 45 20.097 45V43C20.3431 43 20.5525 43.179 20.5909 43.4221L18.6153 43.7338ZM17.8215 38.7028L18.6153 43.7338L20.5909 43.4221L19.7971 38.391L17.8215 38.7028ZM8.73406 37.7188L13.2495 36.0305L12.5491 34.1572L8.03365 35.8454L8.73406 37.7188ZM6.89743 37.0841C7.27786 37.7105 8.05451 37.9729 8.73405 37.7188L8.03365 35.8454C8.24534 35.7663 8.48411 35.8438 8.60687 36.0459L6.89743 37.0841ZM3.21639 31.023L6.89743 37.0841L8.60687 36.0459L4.92583 29.9848L3.21639 31.023ZM3.58561 29.078C2.97605 29.5394 2.82403 30.3769 3.21639 31.023L4.92583 29.9848C5.06052 30.2066 5.00904 30.5089 4.79275 30.6726L3.58561 29.078ZM8.52676 25.3374L3.58561 29.078L4.79276 30.6726L9.7339 26.9321L8.52676 25.3374ZM3.58561 18.922L8.28213 22.4774L9.48927 20.8828L4.79276 17.3274L3.58561 18.922ZM3.21639 16.977C2.82403 17.6231 2.97605 18.4606 3.58561 18.922L4.79276 17.3274C5.00904 17.4911 5.06052 17.7934 4.92583 18.0152L3.21639 16.977ZM6.89743 10.9159L3.21639 16.977L4.92583 18.0152L8.60687 11.9541L6.89743 10.9159ZM8.73406 10.2812C8.05451 10.0271 7.27786 10.2895 6.89743 10.9159L8.60687 11.9541C8.48412 12.1562 8.24533 12.2337 8.03365 12.1546L8.73406 10.2812ZM13.6486 12.1187L8.73406 10.2812L8.03365 12.1546L12.9482 13.992L13.6486 12.1187ZM19.0163 4.26621L18.1946 9.47433L20.1701 9.78605L20.9919 4.57793L19.0163 4.26621ZM20.498 3C19.7598 3 19.1314 3.53706 19.0163 4.26622L20.9919 4.57793C20.9535 4.82098 20.7441 5 20.498 5V3ZM17.4223 13.5082C18.7493 12.7515 19.9061 11.4596 20.1701 9.78605L18.1946 9.47433C18.0496 10.3928 17.384 11.2277 16.4315 11.7709L17.4223 13.5082ZM12.9482 13.992C14.4901 14.5685 16.119 14.2515 17.4223 13.5082L16.4315 11.7709C15.5104 12.2962 14.5051 12.4389 13.6486 12.1187L12.9482 13.992ZM11.0413 24.1906C11.0413 22.9747 10.5627 21.6953 9.48927 20.8828L8.28213 22.4774C8.7567 22.8366 9.04127 23.4649 9.04127 24.1906H11.0413ZM17.1541 34.7158C15.8272 33.9174 14.1432 33.5612 12.5491 34.1572L13.2495 36.0305C14.1364 35.699 15.1803 35.8623 16.123 36.4295L17.1541 34.7158ZM9.7339 26.9321C10.624 26.2582 11.0413 25.206 11.0413 24.1906H9.04127C9.04127 24.684 8.83969 25.1005 8.52676 25.3374L9.7339 26.9321ZM30.8994 34.9176C29.3637 35.7796 27.9817 37.2507 27.6762 39.1875L29.6517 39.4992C29.8329 38.3507 30.6904 37.3284 31.8784 36.6616L30.8994 34.9176ZM35.9847 34.3568C34.2312 33.7012 32.3836 34.0845 30.8994 34.9176L31.8784 36.6616C33.0066 36.0284 34.2317 35.8366 35.2843 36.2302L35.9847 34.3568ZM19.7971 38.391C19.5394 36.758 18.4321 35.4847 17.1541 34.7158L16.123 36.4295C17.0412 36.9819 17.6797 37.804 17.8215 38.7028L19.7971 38.391ZM37.3594 24.1906C37.3594 25.366 37.8263 26.5992 38.8627 27.3838L40.0698 25.7891C39.6279 25.4546 39.3594 24.8693 39.3594 24.1906H37.3594ZM39.0966 20.4391C37.8807 21.3596 37.3594 22.819 37.3594 24.1906H39.3594C39.3594 23.284 39.7033 22.4883 40.3038 22.0338L39.0966 20.4391ZM30.921 13.4757C32.18 14.1855 33.7484 14.4793 35.2322 13.9245L34.5318 12.0512C33.7242 12.3531 32.7752 12.2251 31.9032 11.7335L30.921 13.4757ZM28.2417 9.85538C28.4989 11.4855 29.624 12.7445 30.921 13.4757L31.9032 11.7335C30.99 11.2187 30.3555 10.4199 30.2173 9.54366L28.2417 9.85538Z" fill="white"/>
</g>
<g filter="url(#filter1_d_2062_541)">
<path d="M24.0803 30.799C27.8425 30.799 30.9799 27.8874 30.9799 24.1905C30.9799 20.4937 27.8425 17.582 24.0803 17.582C20.318 17.582 17.1807 20.4937 17.1807 24.1905C17.1807 27.8874 20.318 30.799 24.0803 30.799Z" stroke="white" stroke-width="2" shape-rendering="crispEdges"/>
</g>
</g>
<defs>
<filter id="filter0_d_2062_541" x="-1" y="-1" width="49.9998" height="50" filterUnits="userSpaceOnUse" color-interpolation-filters="sRGB">
<feFlood flood-opacity="0" result="BackgroundImageFix"/>
<feColorMatrix in="SourceAlpha" type="matrix" values="0 0 0 0 0 0 0 0 0 0 0 0 0 0 0 0 0 0 127 0" result="hardAlpha"/>
<feOffset/>
<feGaussianBlur stdDeviation="2"/>
<feComposite in2="hardAlpha" operator="out"/>
<feColorMatrix type="matrix" values="0 0 0 0 0.341176 0 0 0 0 0.411765 0 0 0 0 0.564706 0 0 0 0.2 0"/>
<feBlend mode="normal" in2="BackgroundImageFix" result="effect1_dropShadow_2062_541"/>
<feBlend mode="normal" in="SourceGraphic" in2="effect1_dropShadow_2062_541" result="shape"/>
</filter>
<filter id="filter1_d_2062_541" x="12.1807" y="12.582" width="23.7993" height="23.2168" filterUnits="userSpaceOnUse" color-interpolation-filters="sRGB">
<feFlood flood-opacity="0" result="BackgroundImageFix"/>
<feColorMatrix in="SourceAlpha" type="matrix" values="0 0 0 0 0 0 0 0 0 0 0 0 0 0 0 0 0 0 127 0" result="hardAlpha"/>
<feOffset/>
<feGaussianBlur stdDeviation="2"/>
<feComposite in2="hardAlpha" operator="out"/>
<feColorMatrix type="matrix" values="0 0 0 0 0.341176 0 0 0 0 0.411765 0 0 0 0 0.564706 0 0 0 0.2 0"/>
<feBlend mode="normal" in2="BackgroundImageFix" result="effect1_dropShadow_2062_541"/>
<feBlend mode="normal" in="SourceGraphic" in2="effect1_dropShadow_2062_541" result="shape"/>
</filter>
<clipPath id="clip0_2062_541">
<rect width="48" height="48" fill="white"/>
</clipPath>
</defs>
</svg>
