<svg width="48" height="48" viewBox="0 0 48 48" fill="none" xmlns="http://www.w3.org/2000/svg">
<g clip-path="url(#clip0_2062_542)">
<g filter="url(#filter0_d_2062_542)">
<circle cx="24" cy="24" r="8" stroke="white" stroke-width="2" shape-rendering="crispEdges"/>
</g>
<g filter="url(#filter1_d_2062_542)">
<path d="M42.8587 21.4999C44.0764 22.9746 44.0764 25.0254 42.8587 26.5001C41.0735 28.6621 38.3717 31.5568 35.0864 33.9038C31.794 36.2558 27.9971 38 24 38C20.0029 38 16.206 36.2558 12.9136 33.9038C9.62825 31.5568 6.92649 28.6621 5.14128 26.5001C3.92358 25.0254 3.92358 22.9746 5.14128 21.4999C6.92649 19.3379 9.62825 16.4432 12.9136 14.0962C16.206 11.7442 20.0029 10 24 10C27.9971 10 31.794 11.7442 35.0864 14.0962C38.3717 16.4432 41.0735 19.3379 42.8587 21.4999Z" stroke="white" stroke-width="2" shape-rendering="crispEdges"/>
</g>
</g>
<defs>
<filter id="filter0_d_2062_542" x="11" y="11" width="26" height="26" filterUnits="userSpaceOnUse" color-interpolation-filters="sRGB">
<feFlood flood-opacity="0" result="BackgroundImageFix"/>
<feColorMatrix in="SourceAlpha" type="matrix" values="0 0 0 0 0 0 0 0 0 0 0 0 0 0 0 0 0 0 127 0" result="hardAlpha"/>
<feOffset/>
<feGaussianBlur stdDeviation="2"/>
<feComposite in2="hardAlpha" operator="out"/>
<feColorMatrix type="matrix" values="0 0 0 0 0.341176 0 0 0 0 0.411765 0 0 0 0 0.564706 0 0 0 0.2 0"/>
<feBlend mode="normal" in2="BackgroundImageFix" result="effect1_dropShadow_2062_542"/>
<feBlend mode="normal" in="SourceGraphic" in2="effect1_dropShadow_2062_542" result="shape"/>
</filter>
<filter id="filter1_d_2062_542" x="-0.771973" y="5" width="49.5439" height="38" filterUnits="userSpaceOnUse" color-interpolation-filters="sRGB">
<feFlood flood-opacity="0" result="BackgroundImageFix"/>
<feColorMatrix in="SourceAlpha" type="matrix" values="0 0 0 0 0 0 0 0 0 0 0 0 0 0 0 0 0 0 127 0" result="hardAlpha"/>
<feOffset/>
<feGaussianBlur stdDeviation="2"/>
<feComposite in2="hardAlpha" operator="out"/>
<feColorMatrix type="matrix" values="0 0 0 0 0.341176 0 0 0 0 0.411765 0 0 0 0 0.564706 0 0 0 0.2 0"/>
<feBlend mode="normal" in2="BackgroundImageFix" result="effect1_dropShadow_2062_542"/>
<feBlend mode="normal" in="SourceGraphic" in2="effect1_dropShadow_2062_542" result="shape"/>
</filter>
<clipPath id="clip0_2062_542">
<rect width="48" height="48" fill="white"/>
</clipPath>
</defs>
</svg>
