<svg width="35" height="27" viewBox="0 0 35 27" fill="none" xmlns="http://www.w3.org/2000/svg">
<path d="M18.5 6C18.5 5 18.5 3.5502 17.9749 3.02513C16.9497 2 15.2998 2 12 2C8.70017 2 7.05025 2 6.02513 3.02513C5 4.05025 5 5.70017 5 9V15C5 18.2998 5 19.9497 6.02513 20.9749C7.05025 22 8.70017 22 12 22C15.2998 22 16 22 16 22" stroke="#283F8F" stroke-width="1.5" stroke-linecap="round"/>
<path d="M11 19H13" stroke="#283F8F" stroke-width="1.5" stroke-linecap="round" stroke-linejoin="round"/>
<path d="M9 2L9.089 2.53402C9.28188 3.69129 9.37832 4.26993 9.77519 4.62204C10.1892 4.98934 10.7761 5 12 5C13.2239 5 13.8108 4.98934 14.2248 4.62204C14.6217 4.26993 14.7181 3.69129 14.911 2.53402L15 2" stroke="#283F8F" stroke-width="1.5" stroke-linejoin="round"/>
<path d="M23 25C28.5228 25 33 20.5228 33 15C33 9.47715 28.5228 5 23 5C17.4772 5 13 9.47715 13 15C13 20.5228 17.4772 25 23 25Z" stroke="#283F8F" stroke-width="1.5" stroke-linecap="round" stroke-linejoin="round"/>
<path d="M20 19C20.8356 19.6278 21.8744 19.9998 23 19.9998C24.1256 19.9998 25.1644 19.6278 26 19" stroke="#283F8F" stroke-width="1.5" stroke-linecap="round" stroke-linejoin="round"/>
<path d="M22.5 12.5C20 11 17 11 15 11C15 11 15 16 18 16C20.5 16 22.5 12.5 22.5 12.5Z" stroke="#283F8F" stroke-width="1.5" stroke-linecap="round" stroke-linejoin="round"/>
<path d="M23.5 12.5C26 11 29 11 31 11C31 11 31 16 28 16C25.5 16 23.5 12.5 23.5 12.5Z" stroke="#283F8F" stroke-width="1.5" stroke-linecap="round" stroke-linejoin="round"/>
</svg>
